# xmcd CD database file
#
# Track frame offsets:
#	150
#	15784
#	28510
#	44755
#	61680
#	76339
#	91364
#	107563
#	122179
#	139814
#	160024
#	175993
#	189076
#
# Disc length: 2724 seconds
#
# Revision: 0
# Processed by: cddbd v1.5.2PL0 Copyright (c) Steve Scherf et al.
# Submitted via: jetAudio 7
#
DISCID=980aa20d
DTITLE=Rumer - Seasons of my soul
DYEAR=1900
DGENRE=Soul
TTITLE0=Am I forgiven
TTITLE1=Come to me high
TTITLE2=Slow
TTITLE3=Take me as I am
TTITLE4=Aretha
TTITLE5=Saving grace
TTITLE6=Thankful
TTITLE7=Healer
TTITLE8=Blackbird
TTITLE9=On my way home
TTITLE10=Goddby girl
TTITLE11=Alfie
TTITLE12=It might be you
EXTD=
EXTT0=
EXTT1=
EXTT2=
EXTT3=
EXTT4=
EXTT5=
EXTT6=
EXTT7=
EXTT8=
EXTT9=
EXTT10=
EXTT11=
EXTT12=
PLAYORDER=
